<?xml version="1.0" encoding="UTF-8"?>
<svg width="479px" height="523px" viewBox="0 0 479 523" version="1.1" xmlns="http://www.w3.org/2000/svg" xmlns:xlink="http://www.w3.org/1999/xlink">
    <!-- Generator: Sketch 61 (89581) - https://sketch.com -->
    <title>apple</title>
    <desc>Created with Sketch.</desc>
    <defs>
        <path d="M0.032,0.831 L0.032,523 L478.848,523 L478.848,74.375 C478.848,33.757 445.921,0.831 405.302,0.831 L405.302,0.831" id="path-1"></path>
        <path d="M0.032,0.831 L0.032,523 L478.848,523 L478.848,74.375 C478.848,33.757 445.921,0.831 405.302,0.831 L405.302,0.831" id="path-3"></path>
        <path d="M0.032,0.831 L0.032,523 L478.848,523 L478.848,74.375 C478.848,33.757 445.921,0.831 405.302,0.831 L405.302,0.831" id="path-5"></path>
        <path d="M0.032,0.831 L0.032,523 L478.848,523 L478.848,74.375 C478.848,33.757 445.921,0.831 405.302,0.831 L405.302,0.831" id="path-7"></path>
        <path d="M0.032,0.831 L0.032,523 L478.848,523 L478.848,74.375 C478.848,33.757 445.921,0.831 405.302,0.831 L405.302,0.831" id="path-9"></path>
    </defs>
    <g id="Page-1" stroke="none" stroke-width="1" fill="none" fill-rule="evenodd">
        <g id="Group-277" transform="translate(-1335.000000, -2275.000000)">
            <g id="apple" transform="translate(1335.000000, 2275.000000)">
                <path d="M478.8477,523 L0.0327,523 L0.0327,0.83 L405.3027,0.83 C445.9207,0.83 478.8477,33.757 478.8477,74.375 L478.8477,523 Z" id="Fill-231" fill="#53575A"></path>
                <g id="Group-235">
                    <mask id="mask-2" fill="white">
                        <use xlink:href="#path-1"></use>
                    </mask>
                    <g id="Clip-234"></g>
                    <path d="M570.7422,477.4023 C570.7422,562.6993 501.5952,631.8463 416.2982,631.8463 C331.0002,631.8463 261.8522,562.6993 261.8522,477.4023 C261.8522,392.1043 331.0002,322.9573 416.2982,322.9573 C501.5952,322.9573 570.7422,392.1043 570.7422,477.4023" id="Fill-233" fill="#4E8416" mask="url(#mask-2)"></path>
                </g>
                <g id="Group-238">
                    <mask id="mask-4" fill="white">
                        <use xlink:href="#path-3"></use>
                    </mask>
                    <g id="Clip-237"></g>
                    <path d="M388.7236,465.0156 C391.5186,465.0156 392.7736,465.7386 393.8816,466.3756 C394.9806,467.0096 396.0196,467.6086 399.0946,467.6086 C405.1356,467.6086 415.9486,452.5796 415.9486,437.7906 C415.9486,422.4096 406.6196,418.3456 401.6876,418.3456 C398.8166,418.3456 397.3856,418.9186 395.8696,419.5246 C394.2136,420.1876 392.3356,420.9386 388.7236,420.9386 C385.1116,420.9386 383.2336,420.1876 381.5776,419.5246 C380.0616,418.9186 378.6306,418.3456 375.7596,418.3456 C370.8266,418.3456 361.4986,422.4096 361.4986,437.7906 C361.4986,452.5796 372.3116,467.6086 378.3526,467.6086 C381.4276,467.6086 382.4666,467.0096 383.5656,466.3756 C384.6736,465.7386 385.9286,465.0156 388.7236,465.0156 M399.0946,470.2016 C395.3266,470.2016 393.8706,469.3626 392.5866,468.6226 C391.6036,468.0556 390.8256,467.6086 388.7236,467.6086 C386.6216,467.6086 385.8436,468.0556 384.8606,468.6226 C383.5766,469.3626 382.1206,470.2016 378.3526,470.2016 C370.3206,470.2016 358.9066,453.4396 358.9066,437.7906 C358.9066,420.3596 369.9306,415.7516 375.7596,415.7516 C379.1296,415.7516 380.8646,416.4456 382.5406,417.1186 C384.1196,417.7486 385.6106,418.3456 388.7236,418.3456 C391.8366,418.3456 393.3276,417.7486 394.9066,417.1186 C396.5826,416.4456 398.3176,415.7516 401.6876,415.7516 C407.5166,415.7516 418.5406,420.3596 418.5406,437.7906 C418.5406,453.4396 407.1266,470.2016 399.0946,470.2016" id="Fill-236" fill="#FFFFFF" mask="url(#mask-4)"></path>
                </g>
                <g id="Group-241">
                    <mask id="mask-6" fill="white">
                        <use xlink:href="#path-5"></use>
                    </mask>
                    <g id="Clip-240"></g>
                    <path d="M388.7236,420.9385 C388.0076,420.9385 387.4276,420.3575 387.4276,419.6415 C387.4276,414.6655 389.1626,409.7715 392.3126,405.8635 C395.1306,402.3675 398.7236,400.1965 401.6876,400.1965 C402.4036,400.1965 402.9846,400.7765 402.9846,401.4925 C402.9846,402.2085 402.4036,402.7895 401.6876,402.7895 C397.5886,402.7895 390.0206,409.7395 390.0206,419.6415 C390.0206,420.3575 389.4396,420.9385 388.7236,420.9385" id="Fill-239" fill="#FFFFFF" mask="url(#mask-6)"></path>
                </g>
                <g id="Group-244">
                    <mask id="mask-8" fill="white">
                        <use xlink:href="#path-7"></use>
                    </mask>
                    <g id="Clip-243"></g>
                    <path d="M374.5781,402.8789 C374.8251,404.7809 375.5981,408.2739 378.0241,411.0029 C380.5451,413.8379 385.1811,413.6409 387.3131,413.3739 C387.0681,411.7599 386.3011,408.6819 383.9171,406.2979 C381.4501,403.8289 376.8911,403.0969 374.5781,402.8789 M385.0781,416.1149 C382.2631,416.1149 378.5521,415.4989 376.0871,412.7249 C371.9191,408.0349 371.8711,401.7589 371.8711,401.4919 C371.8711,401.1469 372.0091,400.8149 372.2551,400.5709 C372.5001,400.3269 372.8191,400.2029 373.1801,400.1959 C373.5211,400.1989 381.6161,400.3309 385.7511,404.4659 C389.8841,408.5969 390.0161,414.1999 390.020242,414.4379 C390.0291,415.0479 389.6091,415.5829 389.0131,415.7199 C388.8621,415.7539 387.2321,416.1149 385.0781,416.1149" id="Fill-242" fill="#FFFFFF" mask="url(#mask-8)"></path>
                </g>
                <g id="Group-247">
                    <mask id="mask-10" fill="white">
                        <use xlink:href="#path-9"></use>
                    </mask>
                    <g id="Clip-246"></g>
                    <path d="M388.7236,459.8301 C388.0076,459.8301 387.4276,459.2491 387.4276,458.5341 L387.4276,427.4201 C387.4276,426.7051 388.0076,426.1241 388.7236,426.1241 C389.4396,426.1241 390.0206,426.7051 390.0206,427.4201 L390.0206,458.5341 C390.0206,459.2491 389.4396,459.8301 388.7236,459.8301" id="Fill-245" fill="#FFFFFF" mask="url(#mask-10)"></path>
                </g>
            </g>
        </g>
    </g>
</svg>