<?xml version="1.0" encoding="UTF-8"?>
<svg width="480px" height="523px" viewBox="0 0 480 523" version="1.1" xmlns="http://www.w3.org/2000/svg" xmlns:xlink="http://www.w3.org/1999/xlink">
    <!-- Generator: Sketch 61 (89581) - https://sketch.com -->
    <title>chart</title>
    <desc>Created with Sketch.</desc>
    <defs>
        <path d="M0.334,0.831 L0.334,523 L479.15,523 L479.15,74.376 C479.15,33.757 446.222,0.831 405.605,0.831 L405.605,0.831" id="path-1"></path>
        <path d="M0.334,0.831 L0.334,523 L479.15,523 L479.15,74.376 C479.15,33.757 446.222,0.831 405.605,0.831 L405.605,0.831" id="path-3"></path>
        <path d="M0.334,0.831 L0.334,523 L479.15,523 L479.15,74.376 C479.15,33.757 446.222,0.831 405.605,0.831 L405.605,0.831" id="path-5"></path>
        <path d="M0.334,0.831 L0.334,523 L479.15,523 L479.15,74.376 C479.15,33.757 446.222,0.831 405.605,0.831 L405.605,0.831" id="path-7"></path>
        <path d="M0.334,0.831 L0.334,523 L479.15,523 L479.15,74.376 C479.15,33.757 446.222,0.831 405.605,0.831 L405.605,0.831" id="path-9"></path>
        <path d="M0.334,0.831 L0.334,523 L479.15,523 L479.15,74.376 C479.15,33.757 446.222,0.831 405.605,0.831 L405.605,0.831" id="path-11"></path>
        <path d="M0.334,0.831 L0.334,523 L479.15,523 L479.15,74.376 C479.15,33.757 446.222,0.831 405.605,0.831 L405.605,0.831" id="path-13"></path>
        <path d="M0.334,0.831 L0.334,523 L479.15,523 L479.15,74.376 C479.15,33.757 446.222,0.831 405.605,0.831 L405.605,0.831" id="path-15"></path>
        <path d="M0.334,0.831 L0.334,523 L479.15,523 L479.15,74.376 C479.15,33.757 446.222,0.831 405.605,0.831 L405.605,0.831 L0.334,0.831 Z" id="path-17"></path>
    </defs>
    <g id="Page-1" stroke="none" stroke-width="1" fill="none" fill-rule="evenodd">
        <g id="Group-277" transform="translate(-1334.000000, -1146.000000)">
            <g id="chart" transform="translate(1334.000000, 1146.000000)">
                <path d="M479.1494,523 L0.3344,523 L0.3344,0.83 L405.6044,0.83 C446.2214,0.83 479.1494,33.757 479.1494,74.375 L479.1494,523 Z" id="Fill-196" fill="#53575A"></path>
                <g id="Group-201">
                    <mask id="mask-2" fill="white">
                        <use xlink:href="#path-1"></use>
                    </mask>
                    <g id="Clip-200"></g>
                    <path d="M213.6143,477.4023 C213.6143,562.6993 144.4673,631.8463 59.1703,631.8463 C-26.1277,631.8463 -95.2747,562.6993 -95.2747,477.4023 C-95.2747,392.1043 -26.1277,322.9573 59.1703,322.9573 C144.4673,322.9573 213.6143,392.1043 213.6143,477.4023" id="Fill-199" fill="#4E8416" mask="url(#mask-2)"></path>
                </g>
                <g id="Group-204">
                    <mask id="mask-4" fill="white">
                        <use xlink:href="#path-3"></use>
                    </mask>
                    <g id="Clip-203"></g>
                    <path d="M81.0957,425.0645 C80.3727,425.0645 79.7837,425.6535 79.7837,426.3765 C79.7837,427.0985 80.3727,427.6855 81.0957,427.6855 C81.8187,427.6855 82.4077,427.0985 82.4077,426.3765 C82.4077,425.6535 81.8187,425.0645 81.0957,425.0645 M81.0957,430.3095 C78.9257,430.3095 77.1617,428.5435 77.1617,426.3765 C77.1617,424.2065 78.9257,422.4435 81.0957,422.4435 C83.2657,422.4435 85.0287,424.2065 85.0287,426.3765 C85.0287,428.5435 83.2657,430.3095 81.0957,430.3095" id="Fill-202" fill="#FFFFFF" mask="url(#mask-4)"></path>
                </g>
                <g id="Group-207">
                    <mask id="mask-6" fill="white">
                        <use xlink:href="#path-5"></use>
                    </mask>
                    <g id="Clip-206"></g>
                    <path d="M65.3613,443.4209 C64.6383,443.4209 64.0493,444.0099 64.0493,444.7329 C64.0493,445.4549 64.6383,446.0439 65.3613,446.0439 C66.0863,446.0439 66.6733,445.4549 66.6733,444.7329 C66.6733,444.0099 66.0863,443.4209 65.3613,443.4209 M65.3613,448.6649 C63.1913,448.6649 61.4283,446.8999 61.4283,444.7329 C61.4283,442.5629 63.1913,440.7969 65.3613,440.7969 C67.5313,440.7969 69.2953,442.5629 69.2953,444.7329 C69.2953,446.8999 67.5313,448.6649 65.3613,448.6649" id="Fill-205" fill="#FFFFFF" mask="url(#mask-6)"></path>
                </g>
                <g id="Group-210">
                    <mask id="mask-8" fill="white">
                        <use xlink:href="#path-7"></use>
                    </mask>
                    <g id="Clip-209"></g>
                    <path d="M96.8291,432.9307 C96.1061,432.9307 95.5171,433.5207 95.5171,434.2427 C95.5171,434.9657 96.1061,435.5547 96.8291,435.5547 C97.5521,435.5547 98.1411,434.9657 98.1411,434.2427 C98.1411,433.5207 97.5521,432.9307 96.8291,432.9307 M96.8291,438.1757 C94.6591,438.1757 92.8961,436.4107 92.8961,434.2427 C92.8961,432.0737 94.6591,430.3097 96.8291,430.3097 C98.9991,430.3097 100.7631,432.0737 100.7631,434.2427 C100.7631,436.4107 98.9991,438.1757 96.8291,438.1757" id="Fill-208" fill="#FFFFFF" mask="url(#mask-8)"></path>
                </g>
                <g id="Group-213">
                    <mask id="mask-10" fill="white">
                        <use xlink:href="#path-9"></use>
                    </mask>
                    <g id="Clip-212"></g>
                    <path d="M112.5635,414.5752 C111.8385,414.5752 111.2515,415.1642 111.2515,415.8872 C111.2515,416.6092 111.8385,417.1982 112.5635,417.1982 C113.2875,417.1982 113.8755,416.6092 113.8755,415.8872 C113.8755,415.1642 113.2875,414.5752 112.5635,414.5752 M112.5635,419.8202 C110.3935,419.8202 108.6295,418.0542 108.6295,415.8872 C108.6295,413.7172 110.3935,411.9542 112.5635,411.9542 C114.7325,411.9542 116.4965,413.7172 116.4965,415.8872 C116.4965,418.0542 114.7325,419.8202 112.5635,419.8202" id="Fill-211" fill="#FFFFFF" mask="url(#mask-10)"></path>
                </g>
                <g id="Group-216">
                    <mask id="mask-12" fill="white">
                        <use xlink:href="#path-11"></use>
                    </mask>
                    <g id="Clip-215"></g>
                    <path d="M98.5293,433.5693 C98.2273,433.5693 97.9243,433.4653 97.6763,433.2533 C97.1263,432.7833 97.0623,431.9543 97.5343,431.4043 L109.8663,417.0173 C110.3383,416.4663 111.1653,416.4053 111.7153,416.8753 C112.2653,417.3463 112.3293,418.1733 111.8553,418.7253 L99.5253,433.1113 C99.2663,433.4133 98.8983,433.5693 98.5293,433.5693" id="Fill-214" fill="#FFFFFF" mask="url(#mask-12)"></path>
                </g>
                <g id="Group-219">
                    <mask id="mask-14" fill="white">
                        <use xlink:href="#path-13"></use>
                    </mask>
                    <g id="Clip-218"></g>
                    <path d="M67.0625,444.0586 C66.7605,444.0586 66.4575,443.9546 66.2085,443.7426 C65.6585,443.2706 65.5945,442.4436 66.0665,441.8936 L78.3975,427.5086 C78.8695,426.9596 79.6985,426.8986 80.2455,427.3686 C80.7965,427.8376 80.8595,428.6666 80.3885,429.2166 L68.0575,443.6016 C67.7975,443.9026 67.4305,444.0586 67.0625,444.0586" id="Fill-217" fill="#FFFFFF" mask="url(#mask-14)"></path>
                </g>
                <g id="Group-222">
                    <mask id="mask-16" fill="white">
                        <use xlink:href="#path-15"></use>
                    </mask>
                    <g id="Clip-221"></g>
                    <path d="M94.4893,434.3848 C94.2923,434.3848 94.0923,434.3418 93.9033,434.2458 L82.8553,428.7228 C82.2093,428.3998 81.9453,427.6118 82.2703,426.9628 C82.5953,426.3168 83.3823,426.0528 84.0283,426.3778 L95.0763,431.9008 C95.7243,432.2238 95.9863,433.0118 95.6633,433.6598 C95.4313,434.1188 94.9693,434.3848 94.4893,434.3848" id="Fill-220" fill="#FFFFFF" mask="url(#mask-16)"></path>
                </g>
                <mask id="mask-18" fill="white">
                    <use xlink:href="#path-17"></use>
                </mask>
                <g id="Clip-225"></g>
                <path d="M111.252,469.644 L113.873,469.644 L113.873,430.309 L111.252,430.309 L111.252,469.644 Z M115.185,472.265 L109.94,472.265 C109.216,472.265 108.63,471.678 108.63,470.955 L108.63,428.999 C108.63,428.274 109.216,427.687 109.94,427.687 L115.185,427.687 C115.911,427.687 116.496,428.274 116.496,428.999 L116.496,470.955 C116.496,471.678 115.911,472.265 115.185,472.265 L115.185,472.265 Z" id="Fill-223" fill="#FFFFFF" mask="url(#mask-18)"></path>
                <path d="M95.518,469.644 L98.141,469.644 L98.141,448.665 L95.518,448.665 L95.518,469.644 Z M99.452,472.265 L94.207,472.265 C93.483,472.265 92.896,471.678 92.896,470.955 L92.896,447.354 C92.896,446.63 93.483,446.043 94.207,446.043 L99.452,446.043 C100.177,446.043 100.762,446.63 100.762,447.354 L100.762,470.955 C100.762,471.678 100.177,472.265 99.452,472.265 L99.452,472.265 Z" id="Fill-225" fill="#FFFFFF" mask="url(#mask-18)"></path>
                <path d="M79.785,469.644 L82.406,469.644 L82.406,440.798 L79.785,440.798 L79.785,469.644 Z M83.718,472.265 L78.473,472.265 C77.749,472.265 77.161,471.678 77.161,470.955 L77.161,439.486 C77.161,438.764 77.749,438.177 78.473,438.177 L83.718,438.177 C84.442,438.177 85.029,438.764 85.029,439.486 L85.029,470.955 C85.029,471.678 84.442,472.265 83.718,472.265 L83.718,472.265 Z" id="Fill-226" fill="#FFFFFF" mask="url(#mask-18)"></path>
                <path d="M64.051,469.644 L66.672,469.644 L66.672,459.155 L64.051,459.155 L64.051,469.644 Z M67.983,472.265 L62.739,472.265 C62.015,472.265 61.429,471.678 61.429,470.955 L61.429,457.844 C61.429,457.119 62.015,456.532 62.739,456.532 L67.983,456.532 C68.708,456.532 69.295,457.119 69.295,457.844 L69.295,470.955 C69.295,471.678 68.708,472.265 67.983,472.265 L67.983,472.265 Z" id="Fill-227" fill="#FFFFFF" mask="url(#mask-18)"></path>
                <path d="M53.6191,472.6143 C52.8431,472.6143 52.2121,471.9843 52.2121,471.2073 L52.2121,400.8513 C52.2121,400.0753 52.8431,399.4443 53.6191,399.4443 C54.3961,399.4443 55.0271,400.0753 55.0271,400.8513 L55.0271,471.2073 C55.0271,471.9843 54.3961,472.6143 53.6191,472.6143" id="Fill-228" fill="#FFFFFF" mask="url(#mask-18)"></path>
                <path d="M123.9756,472.6143 L53.6206,472.6143 C52.8436,472.6143 52.2126,471.9843 52.2126,471.2073 C52.2126,470.4303 52.8436,469.8003 53.6206,469.8003 L123.9756,469.8003 C124.7526,469.8003 125.3826,470.4303 125.3826,471.2073 C125.3826,471.9843 124.7526,472.6143 123.9756,472.6143" id="Fill-229" fill="#FFFFFF" mask="url(#mask-18)"></path>
                <path d="M479.1494,523 L0.3344,523 L0.3344,0.83 L405.6044,0.83 C446.2214,0.83 479.1494,33.757 479.1494,74.375 L479.1494,523 Z" id="Fill-196" mask="url(#mask-18)"></path>
            </g>
        </g>
    </g>
</svg>