<?xml version="1.0" encoding="UTF-8"?>
<svg width="192px" height="156px" viewBox="0 0 192 156" version="1.1" xmlns="http://www.w3.org/2000/svg" xmlns:xlink="http://www.w3.org/1999/xlink">
    <!-- Generator: Sketch 61 (89581) - https://sketch.com -->
    <title>go-365@3x</title>
    <desc>Created with Sketch.</desc>
    <defs>
        <polygon id="path-1" points="0.000285321241 0.7114 191.862 0.7114 191.862 156 0.000285321241 156"></polygon>
    </defs>
    <g id="Page-1" stroke="none" stroke-width="1" fill="none" fill-rule="evenodd">
        <g id="go-365" transform="translate(0.000000, -1.000000)">
            <g id="Group-3" transform="translate(0.000000, 0.289000)">
                <mask id="mask-2" fill="white">
                    <use xlink:href="#path-1"></use>
                </mask>
                <g id="Clip-2"></g>
                <path d="M114.2174,0.7114 C85.9554,0.7114 59.8904,16.1314 46.1944,40.9534 L45.9724,41.3544 C43.9174,41.0284 41.8284,40.8514 39.7194,40.8514 C28.5554,40.8514 17.8444,45.5844 10.3344,53.8364 C3.2004,61.6724 -0.4536,71.8314 0.0454,82.4404 C0.5434,93.0494 5.1334,102.8204 12.9714,109.9544 C20.3014,116.6284 29.7954,120.3034 39.7034,120.3034 C42.6174,120.3034 45.4984,119.9734 48.3014,119.3504 L48.5484,119.7404 C62.9044,142.4454 87.4534,156.0004 114.2174,156.0004 C157.0314,156.0004 191.8624,121.1694 191.8624,78.3554 C191.8624,35.5424 157.0314,0.7114 114.2174,0.7114" id="Fill-1" fill="#FFFFFF" mask="url(#mask-2)"></path>
            </g>
            <path d="M114.2184,9.0004 C87.9664,9.0004 65.0654,23.6014 53.1974,45.1074 C57.2624,46.6454 60.9994,48.8584 64.2704,51.6074 C73.8994,33.8924 92.6774,21.8394 114.2184,21.8394 C145.5404,21.8394 171.0224,47.3224 171.0224,78.6444 C171.0224,109.9674 145.5404,135.4484 114.2184,135.4484 C93.8834,135.4484 76.0164,124.7074 65.9784,108.6034 C62.8684,111.5484 59.2674,113.9784 55.3104,115.7534 C67.6604,135.2884 89.4474,148.2894 114.2184,148.2894 C152.6184,148.2894 183.8624,117.0454 183.8624,78.6444 C183.8624,40.2424 152.6184,9.0004 114.2184,9.0004" id="Fill-4" fill="#78BE20"></path>
            <path d="M71.4029,79.3774 C71.0069,70.9124 67.3359,63.1084 61.0679,57.4034 C55.2139,52.0754 47.6319,49.1404 39.7199,49.1404 C30.8039,49.1404 22.2489,52.9194 16.2509,59.5104 C4.4749,72.4464 5.4199,92.5514 18.3559,104.3274 C24.2119,109.6574 31.7919,112.5924 39.7039,112.5924 C48.6209,112.5924 57.1739,108.8134 63.1739,102.2224 C68.8789,95.9554 71.8009,87.8424 71.4029,79.3774" id="Fill-6" fill="#003057"></path>
            <path d="M39.3707,87.4135 C39.3707,89.2975 39.0957,90.9905 38.5487,92.4995 C37.9987,94.0075 37.2097,95.2875 36.1817,96.3385 C35.1527,97.3915 33.8947,98.1925 32.4107,98.7465 C30.9277,99.3005 29.2337,99.5775 27.3377,99.5775 C24.7427,99.5775 22.5037,98.9125 20.6177,97.5855 C18.7317,96.2565 17.3207,94.4985 16.3847,92.3125 L21.0377,92.3125 C21.1997,92.5345 21.4337,92.8305 21.7397,93.2055 C22.0477,93.5795 22.4577,93.9445 22.9657,94.3055 C23.4727,94.6645 24.0887,94.9765 24.8087,95.2385 C25.5307,95.5015 26.3867,95.6355 27.3777,95.6355 C28.4737,95.6355 29.4957,95.4885 30.4467,95.1965 C31.3937,94.9095 32.2227,94.4375 32.9337,93.7865 C33.6407,93.1345 34.1957,92.2995 34.5977,91.2765 C34.9987,90.2505 35.1987,88.9935 35.1987,87.4975 L35.1177,87.4975 C34.9317,87.7745 34.6427,88.1125 34.2557,88.5145 C33.8677,88.9155 33.3667,89.3105 32.7527,89.6975 C32.1377,90.0845 31.3937,90.4175 30.5257,90.6945 C29.6557,90.9695 28.6337,91.1085 27.4567,91.1085 C25.6117,91.1085 23.9597,90.7365 22.5037,89.9895 C21.0457,89.2425 19.8017,88.2865 18.7727,87.1245 C17.7427,85.9615 16.9537,84.6625 16.4057,83.2215 C15.8577,81.7825 15.5837,80.3585 15.5837,78.9455 C15.5837,77.6745 15.8307,76.3305 16.3267,74.9205 C16.8187,73.5085 17.5627,72.2075 18.5517,71.0175 C19.5407,69.8275 20.7847,68.8465 22.2817,68.0695 C23.7797,67.2965 25.5307,66.9095 27.5357,66.9095 C29.1947,66.9095 30.6997,67.2335 32.0507,67.8855 C33.4007,68.5335 34.4487,69.3035 35.1987,70.1865 L35.1987,67.5305 L39.3707,67.5305 L39.3707,87.4135 Z M35.1987,79.0715 C35.1987,77.4665 34.9197,76.1305 34.3557,75.0645 C33.7967,73.9995 33.1057,73.1555 32.2897,72.5345 C31.4747,71.9095 30.6247,71.4745 29.7427,71.2255 C28.8607,70.9765 28.0997,70.8525 27.4567,70.8525 C26.3607,70.8525 25.3367,71.0745 24.3897,71.5165 C23.4377,71.9575 22.6227,72.5535 21.9407,73.3005 C21.2587,74.0475 20.7247,74.9205 20.3377,75.9165 C19.9477,76.9125 19.7567,77.9495 19.7567,79.0295 C19.7567,80.0815 19.9417,81.0905 20.3157,82.0605 C20.6907,83.0295 21.2197,83.8935 21.9017,84.6545 C22.5837,85.4165 23.3917,86.0255 24.3277,86.4805 C25.2637,86.9375 26.2937,87.1645 27.4177,87.1645 C28.7817,87.1645 29.9497,86.8805 30.9277,86.3145 C31.9017,85.7475 32.7127,85.0485 33.3527,84.2185 C33.9957,83.3875 34.4627,82.5085 34.7577,81.5815 C35.0507,80.6555 35.1987,79.8185 35.1987,79.0715 L35.1987,79.0715 Z" id="Fill-8" fill="#FFFFFF"></path>
            <path d="M65.8463,78.9467 C65.8463,80.3587 65.5713,81.7837 65.0243,83.2207 C64.4753,84.6617 63.6933,85.9617 62.6763,87.1257 C61.6613,88.2867 60.4043,89.2417 58.9073,89.9877 C57.4083,90.7357 55.7253,91.1087 53.8533,91.1087 C51.9803,91.1087 50.3023,90.7417 48.8183,90.0097 C47.3323,89.2757 46.0763,88.3277 45.0483,87.1647 C44.0163,86.0027 43.2293,84.6957 42.6813,83.2437 C42.1333,81.7887 41.8593,80.3317 41.8593,78.8627 C41.8593,77.2857 42.1593,75.7787 42.7613,74.3377 C43.3643,72.9007 44.1983,71.6347 45.2683,70.5397 C46.3373,69.4477 47.6013,68.5697 49.0593,67.9047 C50.5163,67.2407 52.1143,66.9087 53.8533,66.9087 C55.5363,66.9087 57.1083,67.2277 58.5653,67.8637 C60.0233,68.5007 61.2933,69.3637 62.3773,70.4557 C63.4593,71.5507 64.3073,72.8307 64.9223,74.2977 C65.5373,75.7637 65.8463,77.3147 65.8463,78.9467 M61.6753,78.9467 C61.6753,77.9237 61.4863,76.9267 61.1143,75.9567 C60.7383,74.9887 60.2103,74.1257 59.5283,73.3637 C58.8463,72.6027 58.0233,71.9927 57.0623,71.5367 C56.0993,71.0797 55.0293,70.8527 53.8533,70.8527 C52.6753,70.8527 51.6063,71.0797 50.6433,71.5367 C49.6803,71.9927 48.8593,72.6027 48.1773,73.3637 C47.4943,74.1257 46.9663,74.9967 46.5913,75.9787 C46.2173,76.9627 46.0303,77.9647 46.0303,78.9887 C46.0303,80.0397 46.2173,81.0507 46.5913,82.0187 C46.9663,82.9877 47.5003,83.8587 48.1973,84.6347 C48.8913,85.4067 49.7133,86.0257 50.6623,86.4807 C51.6123,86.9377 52.6753,87.1647 53.8533,87.1647 C54.9763,87.1647 56.0123,86.9467 56.9603,86.5017 C57.9093,86.0587 58.7393,85.4577 59.4493,84.6957 C60.1573,83.9357 60.7043,83.0547 61.0923,82.0607 C61.4803,81.0617 61.6753,80.0257 61.6753,78.9467" id="Fill-10" fill="#FFFFFF"></path>
            <path d="M101.2164,82.7089 C100.7864,81.5369 100.1094,80.3449 99.2014,79.1669 C98.4804,78.2289 97.5154,77.4279 96.3254,76.7739 C96.3414,76.7589 96.3604,76.7419 96.3764,76.7279 C96.8354,76.3189 97.2754,75.7809 97.6804,75.1299 C98.0814,74.4839 98.4334,73.6969 98.7254,72.7879 C99.0254,71.8569 99.1764,70.7489 99.1764,69.4969 C99.1764,67.9219 98.8794,66.3839 98.2924,64.9309 C97.7104,63.4809 96.8804,62.1729 95.8264,61.0409 C94.7674,59.9039 93.4984,58.9909 92.0554,58.3259 C90.6004,57.6549 89.0064,57.3139 87.3204,57.3139 C86.6354,57.3139 85.7154,57.4409 84.5104,57.7039 C83.2824,57.9699 82.0354,58.5149 80.8034,59.3229 C79.5564,60.1439 78.4304,61.3459 77.4564,62.8959 C76.4754,64.4619 75.8794,66.5479 75.6874,69.0959 L75.6224,69.9589 L84.5134,69.9589 L84.5974,69.2509 C84.6274,68.9969 84.7024,68.6669 84.8194,68.2739 C84.9224,67.9189 85.0914,67.5599 85.3234,67.2079 C85.5364,66.8859 85.8154,66.6209 86.1774,66.3949 C86.5044,66.1929 86.9254,66.0889 87.4304,66.0889 C88.1744,66.0889 88.8344,66.3149 89.4484,66.7809 C89.9864,67.1869 90.2574,68.0249 90.2574,69.2709 C90.2574,69.9719 90.1394,70.5569 89.9064,71.0079 C89.6654,71.4749 89.3624,71.8419 88.9814,72.1309 C88.5864,72.4289 88.1504,72.6349 87.6474,72.7609 C87.1114,72.8959 86.5394,72.9629 85.9454,72.9629 L83.8784,72.9629 L83.8784,81.7389 L85.8914,81.7389 C87.2834,81.7389 88.4574,81.9299 89.3824,82.3059 C90.2994,82.6789 91.0494,83.1629 91.6094,83.7399 C92.1644,84.3169 92.5644,84.9699 92.7994,85.6829 C93.0474,86.4359 93.1724,87.1949 93.1724,87.9359 C93.1724,88.8399 93.0014,89.6769 92.6654,90.4239 C92.3244,91.1769 91.8774,91.8199 91.3334,92.3319 C90.7804,92.8529 90.1594,93.2599 89.4864,93.5419 C88.2764,94.0489 87.1504,94.1209 85.7064,93.6359 C85.0654,93.4179 84.4534,93.0819 83.8894,92.6289 C83.3274,92.1819 82.8384,91.5979 82.4344,90.8929 C82.0354,90.2009 81.7834,89.3339 81.6854,88.3139 L81.6144,87.5899 L72.7274,87.5899 L72.7714,88.4349 C72.8864,90.6589 73.3864,92.6789 74.2544,94.4399 C75.1194,96.1899 76.2324,97.7039 77.5634,98.9389 C78.9004,100.1819 80.4304,101.1349 82.1124,101.7749 C83.7934,102.4139 85.5464,102.7369 87.3204,102.7369 C89.1714,102.7369 91.0074,102.3949 92.7754,101.7179 C94.5544,101.0379 96.1504,100.0339 97.5234,98.7339 C98.8914,97.4399 100.0054,95.8519 100.8364,94.0149 C101.6684,92.1739 102.0914,90.0919 102.0914,87.8229 C102.0914,87.4969 102.0544,86.8819 101.9794,85.9369 C101.9004,84.9609 101.6434,83.8749 101.2164,82.7089" id="Fill-12" fill="#003057"></path>
            <path d="M129.0348,76.3076 C127.8328,75.0456 126.4428,74.0576 124.9018,73.3716 C123.3538,72.6856 121.7928,72.3376 120.2608,72.3376 C120.1188,72.3376 119.9778,72.3386 119.8408,72.3416 L128.7568,58.2246 L118.2798,58.2246 L106.7228,76.4536 C106.2348,77.1916 105.7838,77.9756 105.3818,78.7886 C104.9828,79.5946 104.6118,80.4526 104.2688,81.3566 C103.9258,82.3446 103.6748,83.3196 103.5218,84.2476 C103.3678,85.1746 103.2898,86.0516 103.2898,86.8546 C103.2898,89.2676 103.7088,91.4796 104.5348,93.4276 C105.3588,95.3716 106.4718,97.0566 107.8418,98.4326 C109.2118,99.8116 110.8178,100.8866 112.6128,101.6246 C114.4078,102.3646 116.2978,102.7386 118.2258,102.7386 C120.1948,102.7386 122.0978,102.3416 123.8798,101.5636 C125.6508,100.7886 127.2438,99.6906 128.6138,98.2966 C129.9818,96.9006 131.0848,95.2106 131.8898,93.2696 C132.6968,91.3226 133.1068,89.1556 133.1068,86.8276 C133.1068,84.6486 132.7238,82.6426 131.9708,80.8636 C131.2208,79.0986 130.2318,77.5656 129.0348,76.3076 M124.1858,87.4806 C124.1858,88.2236 124.0538,88.9876 123.7918,89.7526 C123.5288,90.5136 123.1388,91.2156 122.6328,91.8416 C122.1338,92.4566 121.5058,92.9736 120.7578,93.3766 C120.0378,93.7656 119.1858,93.9636 118.2258,93.9636 C117.3618,93.9636 116.5638,93.7896 115.8508,93.4436 C115.1288,93.0946 114.4918,92.6146 113.9608,92.0146 C113.4218,91.4066 112.9918,90.6766 112.6808,89.8456 C112.3678,89.0136 112.2108,88.1206 112.2108,87.1956 C112.2108,86.4936 112.3418,85.7596 112.6038,85.0156 C112.8628,84.2766 113.2508,83.5936 113.7558,82.9856 C114.2568,82.3836 114.8828,81.8716 115.6148,81.4686 C116.3288,81.0766 117.1288,80.8846 118.0608,80.8846 C118.9268,80.8846 119.7368,81.0596 120.4698,81.4076 C121.2118,81.7566 121.8708,82.2326 122.4248,82.8226 C122.9748,83.4096 123.4108,84.1086 123.7198,84.8986 C124.0288,85.6926 124.1858,86.5606 124.1858,87.4806" id="Fill-14" fill="#003057"></path>
            <path d="M162.8356,81.5449 C162.1626,79.6969 161.2076,78.0449 159.9966,76.6309 C158.7806,75.2129 157.3206,74.0589 155.6576,73.1959 C153.9746,72.3249 152.0926,71.8849 150.0646,71.8849 C149.0516,71.8849 148.0726,71.9969 147.1546,72.2179 C146.7236,72.3229 146.2956,72.4489 145.8746,72.5959 L146.8386,66.9419 L159.8876,66.9419 L159.8876,58.1689 L139.9876,58.1689 L135.8986,81.5659 L143.6766,83.7999 L144.0066,83.3429 C144.2096,83.0629 144.4586,82.7609 144.7466,82.4449 C145.0136,82.1529 145.3466,81.8669 145.7366,81.5969 C146.1196,81.3339 146.5756,81.1079 147.0886,80.9249 C147.5906,80.7479 148.1866,80.6579 148.8566,80.6579 C149.7826,80.6579 150.6286,80.8559 151.3676,81.2489 C152.1336,81.6519 152.7826,82.1699 153.2996,82.7879 C153.8206,83.4129 154.2266,84.1329 154.5046,84.9289 C154.7856,85.7319 154.9276,86.5159 154.9276,87.2549 C154.9276,88.0349 154.7936,88.8309 154.5286,89.6159 C154.2636,90.4009 153.8716,91.1359 153.3616,91.8009 C152.8676,92.4429 152.2276,92.9719 151.4576,93.3699 C150.6956,93.7639 149.7836,93.9629 148.7466,93.9629 C148.2316,93.9629 147.6776,93.8779 147.0986,93.7089 C146.5406,93.5499 145.9956,93.2619 145.4756,92.8519 C144.9486,92.4429 144.4706,91.8759 144.0446,91.1659 C143.6216,90.4599 143.3046,89.5359 143.1026,88.4199 L142.9816,87.7609 L134.1626,87.7609 L134.1956,88.5949 C134.2736,90.5209 134.7346,92.3699 135.5676,94.0899 C136.3946,95.8019 137.4866,97.3159 138.8146,98.5879 C140.1436,99.8649 141.6956,100.8849 143.4286,101.6209 C145.1696,102.3619 147.0156,102.7379 148.9106,102.7379 C151.1106,102.7379 153.1496,102.3009 154.9756,101.4369 C156.7806,100.5839 158.3616,99.4319 159.6746,98.0149 C160.9816,96.6009 162.0166,94.9449 162.7456,93.0959 C163.4766,91.2469 163.8466,89.2829 163.8466,87.2549 C163.8466,85.3109 163.5066,83.3889 162.8356,81.5449" id="Fill-16" fill="#003057"></path>
        </g>
    </g>
</svg>