<?xml version="1.0" encoding="UTF-8"?>
<svg width="480px" height="523px" viewBox="0 0 480 523" version="1.1" xmlns="http://www.w3.org/2000/svg" xmlns:xlink="http://www.w3.org/1999/xlink">
    <!-- Generator: Sketch 61 (89581) - https://sketch.com -->
    <title>house</title>
    <desc>Created with Sketch.</desc>
    <defs>
        <path d="M0.334,0.83 L0.334,523 L479.15,523 L479.15,74.375 C479.15,33.757 446.222,0.83 405.605,0.83 L405.605,0.83" id="path-1"></path>
        <path d="M0.334,0.83 L0.334,523 L479.15,523 L479.15,74.375 C479.15,33.757 446.222,0.83 405.605,0.83 L405.605,0.83" id="path-3"></path>
        <path d="M0.334,0.83 L0.334,523 L479.15,523 L479.15,74.375 C479.15,33.757 446.222,0.83 405.605,0.83 L405.605,0.83" id="path-5"></path>
        <path d="M0.334,0.83 L0.334,523 L479.15,523 L479.15,74.375 C479.15,33.757 446.222,0.83 405.605,0.83 L405.605,0.83" id="path-7"></path>
    </defs>
    <g id="Page-1" stroke="none" stroke-width="1" fill="none" fill-rule="evenodd">
        <g id="Group-277" transform="translate(-1334.000000, -3305.000000)">
            <g id="house" transform="translate(1334.000000, 3305.000000)">
                <path d="M479.1494,0.8301 L0.3344,0.8301 L0.3344,523.0001 L405.6044,523.0001 C446.2214,523.0001 479.1494,490.0721 479.1494,449.4551 L479.1494,0.8301 Z" id="Fill-255" fill="#53575A"></path>
                <g id="Group-259">
                    <mask id="mask-2" fill="white">
                        <use xlink:href="#path-1"></use>
                    </mask>
                    <g id="Clip-258"></g>
                    <path d="M213.6143,477.4023 C213.6143,562.6993 144.4673,631.8463 59.1703,631.8463 C-26.1277,631.8463 -95.2747,562.6993 -95.2747,477.4023 C-95.2747,392.1043 -26.1277,322.9573 59.1703,322.9573 C144.4673,322.9573 213.6143,392.1043 213.6143,477.4023" id="Fill-257" fill="#4E8416" mask="url(#mask-2)"></path>
                </g>
                <g id="Group-262">
                    <mask id="mask-4" fill="white">
                        <use xlink:href="#path-3"></use>
                    </mask>
                    <g id="Clip-261"></g>
                    <path d="M113.9648,442.2891 C113.6348,442.2891 113.3078,442.1641 113.0568,441.9131 L81.2428,410.1011 L49.4308,441.9131 C48.9288,442.4151 48.1148,442.4151 47.6138,441.9131 C47.1118,441.4111 47.1118,440.5991 47.6138,440.0971 L80.3358,407.3761 C80.8378,406.8741 81.6498,406.8741 82.1518,407.3761 L114.8718,440.0971 C115.3738,440.5991 115.3738,441.4111 114.8718,441.9131 C114.6208,442.1641 114.2938,442.2891 113.9648,442.2891" id="Fill-260" fill="#FFFFFF" mask="url(#mask-4)"></path>
                </g>
                <g id="Group-265">
                    <mask id="mask-6" fill="white">
                        <use xlink:href="#path-5"></use>
                    </mask>
                    <g id="Clip-264"></g>
                    <path d="M109.1172,473.7988 L87.3032,473.7988 C86.5932,473.7988 86.0172,473.2238 86.0172,472.5148 L86.0172,454.4078 L76.4702,454.4078 L76.4702,472.5148 C76.4702,473.2238 75.8942,473.7988 75.1842,473.7988 L53.3702,473.7988 C52.6612,473.7988 52.0862,473.2238 52.0862,472.5148 L52.0862,442.2158 C52.0862,441.5068 52.6612,440.9318 53.3702,440.9318 C54.0802,440.9318 54.6552,441.5068 54.6552,442.2158 L54.6552,471.2298 L73.8982,471.2298 L73.8982,453.1238 C73.8982,452.4148 74.4732,451.8398 75.1842,451.8398 L87.3032,451.8398 C88.0122,451.8398 88.5872,452.4148 88.5872,453.1238 L88.5872,471.2298 L107.8322,471.2298 L107.8322,442.2158 C107.8322,441.5068 108.4072,440.9318 109.1172,440.9318 C109.8262,440.9318 110.4012,441.5068 110.4012,442.2158 L110.4012,472.5148 C110.4012,473.2238 109.8262,473.7988 109.1172,473.7988" id="Fill-263" fill="#FFFFFF" mask="url(#mask-6)"></path>
                </g>
                <g id="Group-268">
                    <mask id="mask-8" fill="white">
                        <use xlink:href="#path-7"></use>
                    </mask>
                    <g id="Clip-267"></g>
                    <path d="M109.1172,431.3828 C108.4072,431.3828 107.8322,430.8078 107.8322,430.0978 L107.8322,415.6278 L100.7062,415.6278 L100.7062,420.4038 C100.7062,421.1118 100.1312,421.6878 99.4222,421.6878 C98.7132,421.6878 98.1382,421.1118 98.1382,420.4038 L98.1382,414.3428 C98.1382,413.6338 98.7132,413.0588 99.4222,413.0588 L109.1172,413.0588 C109.8262,413.0588 110.4012,413.6338 110.4012,414.3428 L110.4012,430.0978 C110.4012,430.8078 109.8262,431.3828 109.1172,431.3828" id="Fill-266" fill="#FFFFFF" mask="url(#mask-8)"></path>
                </g>
            </g>
        </g>
    </g>
</svg>