<?xml version="1.0" encoding="UTF-8"?>
<svg width="120px" height="23px" viewBox="0 0 120 23" version="1.1" xmlns="http://www.w3.org/2000/svg" xmlns:xlink="http://www.w3.org/1999/xlink">
    <!-- Generator: Sketch 61 (89581) - https://sketch.com -->
    <title>Group 6</title>
    <desc>Created with Sketch.</desc>
    <defs>
        <polygon id="path-1" points="0.0001 0.692 110.5111 0.692 110.5111 22.9998 0.0001 22.9998"></polygon>
    </defs>
    <g id="Page-1" stroke="none" stroke-width="1" fill="none" fill-rule="evenodd">
        <g id="Group-6" transform="translate(0.000000, -1.000000)">
            <g id="Group-3" transform="translate(0.000000, 0.308500)">
                <mask id="mask-2" fill="white">
                    <use xlink:href="#path-1"></use>
                </mask>
                <g id="Clip-2"></g>
                <path d="M53.2211,5.6868 C51.3181,5.6868 49.5081,6.4158 48.7061,6.9728 C47.4771,6.0628 45.7971,5.6868 43.7211,5.6868 C40.5611,5.6868 37.9551,6.6448 37.5721,6.7928 L37.5721,22.8118 L40.9701,22.8118 C41.3051,22.8118 41.5751,22.5448 41.5751,22.1848 L41.5751,9.3118 C42.2911,9.1138 42.9491,9.0208 43.5431,9.0208 C45.8931,9.0208 46.4651,9.9468 46.4651,12.2328 L46.4651,22.1848 C46.4651,22.4758 46.7001,22.8118 47.0731,22.8118 L49.8721,22.8118 C50.2531,22.8118 50.4821,22.5218 50.4821,22.1848 L50.4821,9.8088 C51.1091,9.2758 51.9951,9.0208 52.8241,9.0208 C54.6401,9.0208 55.3731,9.8238 55.3731,12.0058 L55.3731,22.1848 C55.3731,22.4488 55.5751,22.8118 55.9771,22.8118 L59.3701,22.8118 L59.3701,11.4678 C59.3701,7.1668 56.6361,5.6868 53.2211,5.6868 L53.2211,5.6868 Z M0.0001,22.8068 L3.5921,22.8068 C3.8621,22.8068 4.1981,22.5518 4.1981,22.2108 L4.1981,12.8998 L10.8281,12.8998 C11.9331,12.8998 12.7481,13.7768 12.7481,14.6828 L12.7481,22.2108 C12.7481,22.5278 13.0281,22.8068 13.3451,22.8068 L16.9441,22.8068 L16.9441,0.6918 L13.3451,0.6918 C13.0431,0.6918 12.7481,0.9548 12.7481,1.2498 L12.7481,9.5538 L5.8481,9.5538 C4.9321,9.5538 4.1981,8.8128 4.1981,7.9798 L4.1981,1.2498 C4.1981,1.0368 3.9801,0.6918 3.5921,0.6918 L0.0001,0.6918 L0.0001,22.8068 Z M106.5041,18.7218 C105.7671,19.3338 105.1911,19.7278 103.6221,19.7768 C101.3871,19.7768 100.4231,18.4358 100.4231,15.5688 L100.4231,13.2388 C100.4231,9.9378 101.6601,9.0308 103.6221,9.0308 C105.2751,9.0308 106.1711,9.1648 106.5041,9.2338 L106.5041,18.7218 Z M103.6221,5.7008 C99.2091,5.7008 96.4211,8.0538 96.4211,13.0838 L96.4211,15.6068 C96.4211,21.1818 99.4361,22.9888 102.7021,22.9888 C104.3111,22.9888 105.9631,21.8858 106.5041,21.1818 L106.5041,22.2228 C106.5041,22.4888 106.7481,22.8088 107.1081,22.8088 L110.5111,22.8088 L110.5111,6.6658 C110.5111,6.6658 107.1591,5.7008 103.6221,5.7008 L103.6221,5.7008 Z M72.2281,18.7218 C71.4891,19.3338 70.9121,19.7278 69.3451,19.7768 C67.1071,19.7768 66.1451,18.4358 66.1451,15.5688 L66.1451,13.2388 C66.1451,9.9378 67.3821,9.0308 69.3451,9.0308 C70.9961,9.0308 71.8931,9.1648 72.2281,9.2338 L72.2281,18.7218 Z M69.3451,5.7008 C64.9291,5.7008 62.1431,8.0538 62.1431,13.0838 L62.1431,15.6068 C62.1431,21.1818 65.1581,22.9888 68.4231,22.9888 C70.0321,22.9888 71.6861,21.8858 72.2281,21.1818 L72.2281,22.2228 C72.2281,22.4888 72.4711,22.8088 72.8291,22.8088 L76.2331,22.8088 L76.2331,6.6658 C76.2331,6.6658 72.8811,5.7008 69.3451,5.7008 L69.3451,5.7008 Z M82.9501,22.8098 C83.2741,22.8098 83.5821,22.5488 83.5821,22.1848 L83.5821,9.3498 C84.5671,9.1268 85.5601,9.0208 86.5571,9.0208 C88.7911,9.0208 89.6001,9.8368 89.6001,12.2318 L89.6001,22.1848 C89.6001,22.5948 89.9151,22.8098 90.2041,22.8098 L93.6151,22.8098 L93.6151,12.2048 C93.6151,7.2818 90.9691,5.6798 86.6811,5.6798 C83.2541,5.6798 79.8631,6.6488 79.5771,6.7268 L79.5771,22.8098 L82.9501,22.8098 Z M30.8471,5.9828 C30.5241,5.9828 30.2151,6.2448 30.2151,6.6098 L30.2151,19.3308 C29.2301,19.5528 28.2381,19.6598 27.2411,19.6598 C25.0061,19.6598 24.1981,18.8428 24.1981,16.4478 L24.1981,6.6098 C24.1981,6.2028 23.8831,5.9828 23.5921,5.9828 L20.1831,5.9828 L20.1831,16.4768 C20.1831,21.3998 22.8281,22.9998 27.1171,22.9998 C30.5431,22.9998 33.9331,22.0308 34.2191,21.9538 L34.2191,5.9828 L30.8471,5.9828 Z" id="Fill-1" fill="#4E8416" mask="url(#mask-2)"></path>
            </g>
            <path d="M113.9399,23.3083 L113.9399,20.1573 L112.7199,20.1573 L112.7199,19.6073 L115.7979,19.6073 L115.7979,20.1573 L114.5679,20.1573 L114.5679,23.3083 L113.9399,23.3083 Z M116.2189,23.3083 L116.2189,19.6073 L117.1429,19.6073 L118.0949,22.5633 L119.0149,19.6073 L119.9209,19.6073 L119.9209,23.3083 L119.3479,23.3083 L119.3479,20.2023 L118.3779,23.3083 L117.8099,23.3083 L116.7959,20.1573 L116.7959,23.3083 L116.2189,23.3083 Z" id="Fill-4" fill="#4E8416"></path>
        </g>
    </g>
</svg>